<?xml version="1.0" standalone="no"?>
<!DOCTYPE svg PUBLIC "-//W3C//DTD SVG 20010904//EN"
 "http://www.w3.org/TR/2001/REC-SVG-20010904/DTD/svg10.dtd">
<svg version="1.0" xmlns="http://www.w3.org/2000/svg"
 viewBox="0 0 1536.000000 1024.000000"
 preserveAspectRatio="xMidYMid meet">

<g transform="translate(0.000000,1024.000000) scale(0.100000,-0.100000)"
fill="#16a34a" stroke="none">
<path d="M4220 8453 c-14 -2 -34 -8 -45 -13 -17 -7 -108 -16 -262 -25 -18 -1
-41 -9 -51 -18 -10 -9 -34 -17 -54 -17 -19 0 -46 -8 -59 -18 -40 -31 -132 -79
-174 -92 -22 -6 -49 -15 -60 -20 -35 -14 -227 -62 -310 -76 -49 -9 -143 -14
-245 -13 -351 3 -387 0 -525 -41 -33 -10 -91 -21 -129 -24 -44 -5 -79 -14 -96
-26 -21 -15 -43 -20 -92 -19 -49 1 -72 -4 -99 -20 -18 -11 -47 -21 -62 -21
-15 0 -40 -6 -55 -14 -15 -8 -45 -18 -66 -22 -46 -8 -101 -44 -172 -111 -50
-47 -52 -52 -59 -116 -6 -56 -4 -75 14 -120 37 -91 58 -117 114 -142 59 -25
121 -33 357 -40 85 -3 184 -12 220 -21 70 -16 118 -26 249 -51 91 -18 105 -28
204 -143 45 -53 47 -86 11 -167 -14 -32 -28 -76 -30 -97 -3 -21 -14 -56 -25
-77 -11 -22 -22 -60 -25 -86 -10 -79 -30 -144 -67 -223 -19 -41 -45 -118 -57
-170 -12 -52 -26 -113 -32 -135 -6 -22 -12 -63 -13 -92 -2 -28 -10 -66 -19
-84 -9 -17 -16 -38 -16 -46 0 -7 -9 -32 -19 -56 -20 -42 -41 -99 -123 -332 -5
-16 -23 -79 -38 -140 -16 -60 -42 -151 -58 -200 -18 -55 -28 -102 -25 -119 4
-18 -1 -36 -14 -54 -11 -16 -25 -60 -32 -107 -7 -44 -21 -98 -31 -120 -27 -58
-33 -76 -35 -117 -2 -21 -13 -53 -24 -71 -12 -19 -21 -45 -21 -59 0 -13 -9
-42 -20 -63 -12 -22 -25 -60 -31 -85 -6 -25 -27 -90 -49 -145 -21 -55 -46
-129 -55 -165 -10 -36 -26 -87 -37 -113 -10 -27 -17 -54 -15 -60 2 -6 -5 -34
-15 -62 -10 -27 -18 -59 -18 -70 0 -12 -8 -39 -18 -61 -11 -21 -27 -67 -36
-101 -9 -34 -38 -102 -63 -150 -25 -48 -52 -99 -59 -113 -7 -14 -24 -76 -39
-139 -27 -119 -38 -139 -136 -267 -26 -33 -57 -80 -68 -103 -22 -42 -47 -75
-195 -252 l-79 -94 7 -97 c5 -81 10 -103 31 -134 14 -20 25 -43 25 -51 0 -7
12 -19 28 -26 15 -6 29 -15 32 -18 11 -16 113 -49 148 -49 20 0 55 7 77 14 45
16 332 24 395 12 29 -6 43 -2 80 22 25 15 54 32 65 36 25 10 368 34 630 44
228 9 220 7 355 98 57 38 99 112 100 173 0 48 -24 151 -45 191 -7 14 -54 60
-104 104 -100 87 -154 160 -150 203 1 15 -1 61 -5 101 -6 57 -5 82 7 110 8 21
20 55 26 77 7 22 18 54 26 70 20 47 45 128 45 149 0 23 55 209 75 251 19 42
95 277 95 295 0 8 18 38 40 65 22 28 47 65 55 83 8 17 34 46 57 62 39 29 45
30 147 30 85 0 122 -5 181 -24 41 -13 95 -27 120 -31 47 -7 130 -45 165 -74
11 -10 39 -23 62 -31 46 -14 173 -122 173 -147 0 -21 58 -121 75 -130 7 -5 21
-48 30 -98 9 -49 25 -119 36 -155 10 -36 21 -87 24 -115 4 -27 12 -59 19 -70
17 -27 25 -86 31 -230 4 -113 3 -122 -20 -167 -14 -26 -25 -56 -25 -65 0 -21
-34 -57 -107 -113 -28 -21 -54 -47 -57 -57 -3 -10 -31 -34 -61 -53 -30 -19
-55 -40 -55 -46 0 -5 -16 -26 -36 -45 -56 -53 -76 -102 -75 -178 0 -35 5 -69
11 -75 5 -5 10 -17 10 -25 0 -8 15 -33 33 -57 51 -68 148 -96 297 -87 155 9
562 -45 700 -94 27 -9 89 -17 155 -19 61 -2 126 -8 145 -14 56 -16 106 -12
215 20 57 16 133 34 171 40 37 6 72 14 77 17 5 3 57 5 115 5 158 -2 232 21
315 100 63 60 83 130 64 214 -20 83 -25 91 -114 170 -98 87 -116 107 -159 172
-20 29 -53 69 -74 88 -31 28 -44 52 -65 117 -15 45 -38 108 -51 139 -15 37
-24 77 -24 111 0 30 -6 70 -14 88 -20 52 -26 106 -12 118 7 6 26 7 51 1 22 -5
220 -10 440 -11 382 -1 403 0 463 20 60 21 63 21 95 4 29 -16 74 -18 507 -20
446 -2 478 -1 529 18 59 20 101 24 117 11 27 -24 106 -31 345 -33 270 -2 312
3 357 45 13 11 30 33 38 49 8 15 20 27 28 27 16 0 46 -32 46 -50 0 -17 95
-118 140 -149 131 -89 509 -163 599 -116 43 22 129 117 137 151 3 13 17 30 31
39 22 14 47 16 193 10 166 -7 169 -6 209 17 46 28 93 83 118 139 9 21 22 39
29 39 7 0 37 -21 67 -47 30 -27 72 -57 93 -69 22 -11 48 -25 59 -31 79 -43
174 -67 274 -71 116 -5 177 6 285 50 81 33 90 34 124 10 43 -29 96 -40 178
-37 60 2 82 7 106 25 19 14 38 20 51 16 12 -3 65 -17 117 -31 99 -26 145 -31
154 -16 7 11 125 23 139 14 38 -23 244 10 279 45 8 8 24 4 58 -13 26 -13 50
-22 53 -19 3 3 14 1 25 -5 11 -6 129 -13 278 -16 245 -5 263 -4 319 16 114 40
148 86 148 200 0 41 -8 72 -31 121 -40 85 -51 207 -52 580 0 147 -2 273 -5
280 -2 7 -1 82 3 167 l7 155 50 14 c28 7 69 19 92 26 24 6 48 17 55 24 35 35
36 21 34 -495 -1 -280 2 -533 5 -563 3 -33 1 -71 -7 -95 -7 -22 -26 -84 -44
-139 -28 -91 -30 -100 -15 -122 8 -13 15 -32 15 -43 0 -23 61 -78 109 -98 27
-12 87 -16 246 -18 115 -1 237 -5 270 -10 45 -5 71 -3 105 9 25 9 52 16 61 16
25 0 98 76 104 107 3 16 10 42 15 59 13 41 -2 119 -36 186 l-27 53 -4 375 c-2
206 -4 380 -4 385 0 6 2 64 4 130 2 66 -1 139 -7 163 -9 35 -8 45 4 53 19 11
111 5 140 -11 34 -18 95 -14 161 10 68 26 93 56 124 149 20 60 17 180 -5 221
-8 14 -13 75 -14 159 -1 136 -1 137 -33 185 -42 63 -98 103 -164 117 -49 11
-482 21 -939 23 -142 0 -181 -2 -205 -15 -47 -25 -125 -32 -146 -13 -23 21
-177 30 -424 24 -133 -2 -206 -18 -249 -53 l-28 -23 -47 23 c-99 48 -144 55
-351 56 l-195 0 -89 -38 c-77 -33 -92 -44 -114 -81 -15 -24 -34 -45 -43 -47
-10 -3 -46 14 -81 37 -102 67 -196 116 -236 122 -20 3 -44 9 -52 14 -29 14
-87 22 -204 26 -115 3 -200 -10 -231 -37 -5 -5 -17 -9 -26 -9 -36 0 -130 -43
-125 -57 3 -7 -1 -13 -10 -13 -8 0 -26 -11 -40 -25 -14 -14 -31 -25 -37 -25
-7 0 -31 -18 -52 -40 -21 -22 -44 -40 -51 -40 -6 0 -14 22 -18 49 -4 33 -17
63 -41 94 -48 63 -111 82 -239 70 -50 -4 -172 -5 -270 -2 -130 5 -187 3 -208
-5 -47 -20 -117 -94 -128 -136 -11 -42 -33 -70 -55 -70 -7 0 -37 19 -65 43
-63 51 -117 80 -190 102 -30 9 -79 25 -107 36 -45 18 -82 21 -255 25 -112 3
-225 6 -253 8 -27 2 -115 7 -195 10 l-145 7 -75 -33 c-86 -38 -113 -70 -131
-156 -10 -50 -9 -63 11 -120 12 -35 19 -66 16 -69 -3 -3 1 -18 10 -34 8 -16
14 -46 13 -66 -2 -61 -2 -329 0 -613 1 -146 -1 -290 -4 -320 l-6 -55 -100 -24
c-95 -22 -179 -65 -179 -91 0 -15 -77 -51 -94 -44 -18 7 -18 -10 -16 404 0
162 4 311 9 331 5 21 6 42 2 47 -3 6 -6 106 -6 224 0 202 1 215 23 255 17 32
23 62 25 121 l2 79 -40 45 c-22 24 -62 56 -90 70 -50 26 -51 26 -293 27 -134
1 -248 4 -253 7 -5 3 -35 0 -67 -7 -47 -11 -65 -22 -104 -61 -78 -80 -85 -149
-29 -267 l29 -61 1 -378 c1 -207 3 -445 3 -529 1 -99 -3 -157 -10 -166 -8 -9
-29 -12 -70 -9 -37 3 -62 0 -66 -7 -4 -6 -16 -11 -26 -11 -11 0 -25 -10 -31
-22 -6 -13 -23 -34 -38 -48 -15 -14 -34 -35 -42 -48 -21 -29 -72 -45 -94 -28
-14 10 -18 37 -22 147 -3 74 -5 145 -4 159 0 14 2 223 4 465 4 415 5 443 24
485 68 153 62 244 -24 319 -25 23 -54 41 -63 41 -10 0 -24 7 -31 16 -10 13
-25 15 -74 10 -71 -7 -204 -8 -370 -3 -106 3 -126 1 -170 -18 -59 -26 -130
-100 -139 -146 -13 -68 -7 -125 19 -163 14 -20 25 -45 25 -55 0 -10 7 -34 15
-54 10 -25 12 -49 6 -88 -4 -30 -6 -92 -3 -139 2 -47 4 -92 4 -100 0 -8 0 -28
0 -45 0 -16 0 -46 0 -65 0 -19 -4 -58 -9 -87 -5 -28 -5 -61 -1 -74 11 -29 1
-200 -12 -213 -5 -5 -12 -7 -15 -4 -9 8 -35 196 -35 249 0 27 -6 63 -14 81
-13 30 -21 62 -57 228 -11 54 -38 180 -49 235 -4 22 -25 103 -45 180 -21 77
-39 156 -42 175 -2 19 -11 80 -19 135 -8 55 -20 145 -25 200 -5 55 -16 116
-23 135 -26 68 -36 107 -36 137 0 17 -9 60 -20 95 -11 36 -20 91 -20 129 0 53
-5 76 -26 112 -21 38 -25 58 -23 114 6 239 -12 360 -85 568 -40 112 -63 200
-69 260 -2 22 -9 50 -15 62 -7 12 -12 37 -12 56 0 38 -31 148 -55 194 -8 15
-15 35 -15 44 0 19 -165 157 -212 176 -18 8 -44 25 -58 38 -40 37 -158 76
-210 68z m-1883 -799 c-3 -3 -12 -4 -19 -1 -8 3 -5 6 6 6 11 1 17 -2 13 -5z
m66 -21 c-7 -2 -19 -2 -25 0 -7 3 -2 5 12 5 14 0 19 -2 13 -5z m607 -289 c0
-2 -4 -4 -9 -4 -5 0 -19 17 -30 38 l-22 37 31 -34 c16 -18 30 -35 30 -37z m44
-117 c4 -17 3 -26 -2 -23 -6 3 -12 19 -14 36 -6 37 7 27 16 -13z m450 -296
c-4 -3 -9 0 -11 7 -3 6 -10 9 -15 6 -7 -4 -8 -2 -4 5 6 9 11 9 22 0 8 -6 12
-15 8 -18z m218 -31 c-21 -20 -92 -160 -133 -263 -30 -74 -49 -100 -65 -86
-17 14 -18 29 -3 29 5 0 7 -4 4 -10 -3 -5 -3 -10 2 -10 9 0 43 56 43 71 0 5
-5 9 -11 9 -5 0 -7 -4 -4 -10 3 -5 1 -10 -4 -10 -6 0 -11 4 -11 8 0 5 -15 13
-34 18 l-33 9 16 35 15 35 4 -32 c2 -18 6 -33 10 -34 4 0 19 -3 35 -5 32 -6
39 21 7 29 -25 6 -34 29 -26 62 5 21 10 24 36 18 18 -3 30 -1 30 5 0 5 7 12
15 16 8 3 15 1 15 -4 0 -5 -7 -15 -15 -24 -8 -8 -15 -20 -15 -27 0 -22 17 2
55 79 33 68 66 112 82 112 4 0 -3 -9 -15 -20z m-207 -46 c19 -20 35 -32 35
-28 0 4 3 5 6 2 3 -4 -3 -15 -13 -25 -16 -16 -21 -17 -45 -5 -16 7 -28 20 -28
28 0 8 -4 14 -10 14 -5 0 -10 5 -10 10 0 6 7 10 16 10 10 0 14 6 10 15 -9 23
1 18 39 -21z m73 10 c1 -1 -5 -7 -15 -15 -12 -10 -15 -10 -9 -1 4 7 2 20 -6
30 -12 16 -11 16 7 2 11 -8 21 -15 23 -16z m22 -58 c0 -11 -19 -15 -25 -6 -3
5 1 10 9 10 9 0 16 -2 16 -4z m267 -28 c-3 -7 -5 -2 -5 12 0 14 2 19 5 13 2
-7 2 -19 0 -25z m-402 12 c3 -5 1 -10 -4 -10 -6 0 -11 5 -11 10 0 6 2 10 4 10
3 0 8 -4 11 -10z m5 -30 c0 -5 5 -9 11 -7 6 1 14 -4 16 -10 8 -21 -25 -15 -37
7 -7 14 -7 20 0 20 5 0 10 -4 10 -10z m420 -49 c0 -32 -6 -24 -14 19 -4 25 -3
31 4 20 5 -8 10 -26 10 -39z m7 -103 c-2 -13 -4 -5 -4 17 -1 22 1 32 4 23 2
-10 2 -28 0 -40z m-462 -6 c-3 -4 -10 0 -16 8 -8 13 -10 13 -20 0 -8 -12 -10
-12 -7 5 2 11 8 20 15 20 6 0 15 4 20 8 4 5 9 -1 11 -13 2 -12 1 -25 -3 -28z
m2 -48 c-7 -7 -37 7 -37 17 0 6 9 5 21 -1 11 -7 19 -14 16 -16z m470 -16 c-3
-7 -5 -2 -5 12 0 14 2 19 5 13 2 -7 2 -19 0 -25z m-433 -153 c-24 -74 -44
-118 -44 -102 0 16 -5 38 -11 50 -9 18 -9 20 2 10 19 -18 26 -16 32 9 4 13 1
26 -6 30 -8 5 -7 8 4 8 10 0 21 16 28 42 18 60 31 91 35 87 2 -2 -16 -62 -40
-134z m454 65 c0 -9 -3 -7 -8 5 -5 11 -8 29 -8 40 0 16 2 15 8 -5 4 -14 8 -32
8 -40z m-520 -25 c-3 -3 -9 2 -12 12 -6 14 -5 15 5 6 7 -7 10 -15 7 -18z m534
-71 c2 -19 0 -37 -4 -40 -4 -3 -8 13 -8 35 0 51 6 53 12 5z m5 -91 c-3 -10 -5
-4 -5 12 0 17 2 24 5 18 2 -7 2 -21 0 -30z m-542 -82 c-9 -28 -21 -51 -27 -51
-6 0 -8 3 -5 7 4 3 -1 12 -11 20 -16 14 -16 14 1 9 14 -5 22 3 35 33 23 54 28
43 7 -18z m552 -13 c-3 -7 -5 -2 -5 12 0 14 2 19 5 13 2 -7 2 -19 0 -25z
m-261 -5 c4 -10 8 -45 10 -79 1 -34 10 -76 19 -94 9 -18 23 -85 30 -149 8 -64
18 -129 24 -143 5 -14 8 -28 6 -30 -2 -2 2 -40 10 -83 25 -139 18 -187 -23
-170 -9 4 -31 7 -48 6 -23 -2 -36 4 -47 19 -11 16 -24 21 -49 19 -19 -2 -48 3
-65 10 -26 11 -36 10 -61 -3 -38 -20 -81 -21 -88 -2 -3 8 6 47 19 87 14 41 33
101 42 133 10 33 24 71 31 85 8 14 14 32 14 39 0 6 9 29 20 49 11 21 20 43 20
49 0 10 24 67 80 189 10 22 21 50 25 63 8 26 20 28 31 5z m284 -79 c4 -33 11
-72 14 -89 5 -26 4 -25 -8 7 -16 39 -33 157 -22 147 4 -4 11 -33 16 -65z
m-643 -16 c-3 -7 -5 -2 -5 12 0 14 2 19 5 13 2 -7 2 -19 0 -25z m-1 -85 c-18
-33 -21 -26 -6 13 6 15 13 24 16 21 3 -3 -1 -18 -10 -34z m688 -66 c-2 -26 -1
-37 5 -28 10 15 61 8 61 -8 0 -16 -30 -41 -49 -41 -25 0 -61 108 -40 120 21
14 27 3 23 -43z m171 13 c-3 -5 3 -10 14 -10 12 0 21 -4 21 -9 0 -5 -10 -7
-21 -4 -18 5 -20 3 -15 -15 6 -18 3 -20 -26 -19 -46 3 -53 27 -14 49 36 19 50
22 41 8z m-910 -66 c-13 -32 -24 -54 -25 -48 0 6 6 27 14 45 7 19 16 43 20 53
3 10 9 17 11 14 3 -3 -6 -31 -20 -64z m907 -30 c7 -1 19 -2 27 -3 11 -1 11 -4
1 -15 -6 -8 -18 -12 -26 -9 -17 6 -19 -18 -2 -35 9 -9 9 -15 0 -24 -7 -7 -12
-22 -12 -35 0 -24 -14 -31 -25 -13 -10 16 -45 12 -45 -6 0 -8 -6 -22 -12 -29
-46 -51 -48 -58 -13 -42 14 7 25 20 25 30 0 9 7 17 16 17 10 0 15 -8 14 -22
-4 -50 -1 -60 17 -49 10 5 18 23 19 41 1 17 5 34 8 37 12 12 61 -12 64 -31 3
-14 0 -17 -13 -12 -10 3 -15 2 -13 -5 2 -6 8 -11 13 -12 30 -3 49 -57 20 -57
-8 0 -15 -4 -15 -10 0 -15 16 -12 34 5 19 19 33 1 16 -20 -16 -19 -4 -53 12
-37 8 8 15 7 25 -6 8 -9 12 -12 9 -6 -3 6 0 11 7 11 7 0 13 -9 13 -19 0 -11
-7 -18 -16 -17 -8 1 -22 -1 -30 -4 -8 -3 -26 -7 -39 -9 -14 -2 -26 -9 -29 -16
-3 -9 3 -13 18 -10 13 2 25 -3 27 -10 3 -8 -1 -10 -13 -5 -12 4 -15 3 -10 -5
4 -7 2 -12 -3 -12 -6 0 -11 -6 -11 -13 0 -7 -14 -26 -30 -42 -17 -16 -29 -34
-26 -40 2 -6 -5 -17 -15 -23 -18 -12 -18 -13 -1 -30 46 -45 50 -45 67 -13 17
34 54 48 82 33 11 -7 24 -7 35 -1 27 14 43 0 21 -18 -13 -10 -15 -16 -5 -19
13 -6 7 -24 -9 -24 -6 0 -8 4 -5 8 5 9 -29 42 -44 42 -16 0 -23 -22 -10 -30 9
-6 6 -10 -10 -15 -17 -5 -20 -12 -16 -31 7 -26 -16 -69 -35 -69 -7 0 -12 -25
-13 -62 0 -34 1 -60 3 -57 2 2 10 -1 18 -7 10 -9 13 -8 13 5 0 9 5 16 10 16 6
0 10 -4 10 -10 0 -5 7 -6 17 -3 10 4 14 2 10 -4 -9 -15 19 -37 38 -29 8 3 15
12 15 21 0 8 5 15 10 15 19 0 10 16 -21 34 -25 15 -33 16 -40 5 -6 -11 -14
-10 -41 4 l-33 17 35 -2 c19 -1 41 1 48 6 17 10 15 46 -2 46 -21 0 -25 11 -17
49 4 22 13 35 25 37 16 2 18 -2 12 -37 -7 -43 5 -51 36 -22 17 15 18 15 18
-11 0 -15 -7 -29 -15 -32 -8 -4 -15 -17 -15 -30 0 -25 15 -33 23 -11 4 9 7 9
18 -1 11 -10 11 -16 0 -34 -9 -15 -10 -27 -3 -42 6 -11 15 -36 22 -53 7 -18
17 -33 22 -33 5 0 6 -5 2 -11 -3 -6 0 -15 7 -20 9 -6 1 -7 -20 -2 -33 6 -34 5
-27 -22 6 -25 6 -26 -9 -11 -22 22 -26 20 -19 -9 4 -15 1 -32 -7 -41 -12 -14
-14 -14 -21 5 -4 12 -16 21 -28 21 -13 0 -20 7 -20 19 0 16 -8 19 -48 19 -55
0 -77 -21 -66 -63 5 -21 8 -22 20 -10 8 7 14 18 14 24 0 19 18 12 25 -9 3 -11
10 -20 15 -20 4 0 4 -17 -1 -37 -4 -21 -4 -40 0 -43 4 -3 10 -12 13 -20 3 -9
11 5 19 33 9 33 17 46 27 42 7 -3 17 -5 21 -5 5 0 6 -12 3 -26 -3 -18 -8 -22
-15 -15 -17 17 -26 13 -20 -9 3 -12 0 -20 -6 -20 -8 0 -11 -14 -9 -37 3 -35 5
-38 39 -40 25 -2 39 2 42 12 8 19 -13 31 -24 14 -6 -10 -9 -11 -9 -1 0 6 -7
12 -15 12 -20 0 -19 12 3 30 19 17 62 24 62 9 0 -5 7 -9 15 -9 11 0 14 10 11
42 -3 23 -9 44 -15 46 -15 5 -14 42 2 42 6 0 20 14 30 32 14 24 20 29 27 19 4
-8 15 -11 24 -8 26 10 19 -27 -6 -38 -18 -8 -23 -19 -25 -50 0 -22 -6 -62 -11
-90 -11 -52 -8 -69 11 -62 20 6 38 -21 31 -48 -3 -13 -10 -22 -15 -19 -5 3 -7
9 -4 14 3 5 1 11 -4 14 -15 9 -24 -13 -12 -28 6 -7 8 -16 4 -19 -3 -4 2 -9 11
-13 10 -4 16 -18 16 -36 0 -29 -1 -29 -43 -23 -33 5 -46 3 -56 -9 -12 -14 -12
-16 1 -11 9 4 18 -1 22 -10 3 -9 10 -13 16 -10 5 3 15 -6 22 -22 18 -44 17
-65 -3 -70 -12 -3 -19 -14 -19 -29 0 -27 15 -32 24 -8 3 8 9 13 14 10 4 -2 9
7 10 22 1 15 8 32 15 39 11 11 13 7 15 -24 2 -30 -4 -45 -27 -70 -19 -21 -26
-35 -19 -39 6 -4 17 2 25 12 8 10 17 19 21 19 4 0 7 8 6 18 0 9 5 17 13 17 7
0 13 5 13 11 0 5 5 7 11 4 7 -5 5 -15 -5 -31 -9 -13 -16 -30 -16 -37 0 -8 -7
-20 -16 -28 -14 -12 -13 -14 6 -21 18 -6 21 -13 16 -33 -7 -29 8 -33 24 -7 11
16 11 16 6 0 -4 -12 0 -18 12 -19 9 -1 -1 -5 -23 -10 -48 -12 -83 -52 -65 -74
10 -12 9 -15 -2 -15 -9 0 -20 17 -26 39 -17 56 -16 63 16 59 23 -2 27 1 30 23
3 30 -20 54 -44 45 -10 -4 -13 -13 -9 -26 4 -11 0 -29 -9 -42 -24 -34 -19 -66
14 -100 17 -16 30 -34 30 -40 0 -6 -11 1 -25 16 -13 14 -27 26 -31 26 -9 0
-33 32 -34 45 0 6 -22 53 -50 104 -27 51 -41 86 -30 76 18 -16 18 -16 13 7
-10 48 -13 54 -22 39 -6 -10 -13 -4 -25 19 -15 31 -15 34 1 45 14 11 15 15 4
28 -7 9 -10 20 -7 26 3 5 -1 11 -8 14 -19 7 -40 -18 -30 -35 5 -7 10 -21 11
-31 2 -14 -6 -11 -37 15 -32 26 -39 38 -35 56 4 15 2 21 -4 17 -15 -9 -79 23
-96 48 -18 26 -10 37 9 12 23 -32 48 -12 45 37 -3 38 -1 43 16 41 11 -1 14 0
7 3 -6 3 -9 11 -6 16 4 7 2 8 -4 4 -15 -9 -15 7 -1 21 9 9 17 7 32 -7 26 -25
34 -19 29 24 -3 27 -9 36 -23 36 -14 0 -19 7 -19 25 0 21 3 24 28 19 16 -3 35
1 47 10 20 14 19 15 -7 21 -14 4 -36 2 -47 -5 -16 -8 -21 -8 -21 2 0 9 -3 9
-8 2 -8 -12 -42 -26 -42 -18 0 3 4 14 10 24 10 19 4 50 -9 50 -4 0 -13 -11
-19 -25 -9 -20 -9 -23 3 -18 22 8 18 -15 -4 -27 -24 -12 -42 -6 -58 19 -10 16
-9 22 4 33 13 10 17 10 20 0 7 -18 23 -4 23 19 0 20 -16 26 -22 8 -2 -6 -13
-9 -23 -6 -19 5 -19 5 3 12 12 4 22 13 22 20 0 7 7 18 15 25 9 7 13 21 10 31
-5 14 -2 17 9 13 9 -4 16 -1 16 6 0 7 7 10 15 6 18 -7 18 -6 1 34 -12 30 -14
31 -19 10 -3 -12 -11 -20 -18 -18 -17 6 -21 20 -10 37 12 18 61 6 61 -15 0 -9
6 -14 13 -11 6 2 11 16 9 31 -3 28 25 75 46 76 18 0 15 28 -9 66 -27 44 -21
61 12 35 l26 -20 12 26 c9 19 9 29 0 39 -10 13 -14 12 -29 -1 -22 -20 -40 -19
-40 1 0 14 -2 15 -17 3 -15 -13 -16 -11 -11 14 3 15 2 27 -2 27 -9 0 -30 -78
-25 -94 2 -6 6 -23 9 -38 5 -22 13 -28 34 -29 23 -2 24 -2 5 -6 -16 -3 -23
-11 -23 -29 0 -13 -4 -24 -10 -24 -5 0 -10 13 -10 29 0 31 -14 49 -25 31 -10
-16 -25 -12 -19 5 5 11 2 13 -10 9 -24 -9 -19 14 8 39 46 43 43 102 -18 352
-13 55 -27 134 -31 175 -3 41 -11 95 -16 119 -7 30 -6 48 1 55 7 7 10 5 10 -7
0 -23 40 -23 41 1 1 11 4 8 8 -8 l7 -25 12 23 c7 12 19 22 26 22 8 0 17 8 20
17 6 15 8 15 16 3 5 -8 15 -16 22 -16z m84 -17 c0 -32 -1 -33 -18 -18 -19 17
-24 26 -8 16 6 -3 10 3 10 14 0 35 15 23 16 -12z m6534 15 c34 -9 83 -29 180
-75 55 -26 131 -100 159 -155 38 -75 53 -175 42 -274 -1 -5 -25 -32 -53 -61
-52 -51 -202 -137 -240 -137 -9 0 -20 -4 -23 -10 -11 -18 -43 -11 -48 11 -4
15 3 34 21 57 23 30 27 45 26 101 0 79 -13 127 -45 170 -32 44 -101 75 -146
66 -42 -8 -105 -39 -126 -63 -28 -30 -74 -135 -86 -192 -18 -90 -39 -327 -40
-445 -1 -118 17 -323 29 -340 4 -5 10 -37 13 -71 7 -82 54 -175 106 -210 102
-67 217 -27 272 93 17 37 19 64 19 211 l-2 168 -30 10 c-29 8 -69 61 -124 164
l-14 25 257 3 c141 1 258 1 259 -1 2 -2 4 -232 5 -512 1 -463 -1 -509 -16
-518 -25 -14 -66 1 -100 37 -37 39 -66 56 -96 56 -12 0 -31 8 -41 17 -14 12
-19 13 -16 4 2 -9 -17 -22 -51 -36 -29 -12 -61 -32 -70 -43 -19 -26 -118 -54
-161 -46 -16 4 -27 10 -24 15 3 5 0 9 -5 9 -6 0 -11 -5 -11 -10 0 -24 -196 24
-214 52 -6 10 -17 18 -24 18 -22 0 -167 153 -190 200 -13 25 -30 59 -40 75
-18 30 -43 104 -67 198 -29 116 -52 467 -33 516 5 14 9 64 10 111 0 47 6 99
13 116 13 31 27 113 30 169 2 48 46 198 66 227 11 14 19 31 19 36 0 20 194
213 229 228 20 9 60 18 90 20 30 3 59 8 65 12 13 8 142 21 171 16 11 -1 36 -7
55 -12z m-920 -8 c0 -3 -17 -40 -37 -82 l-37 -77 -4 -784 c-3 -834 -3 -848 45
-917 13 -20 27 -49 30 -65 4 -24 2 -29 -13 -29 -11 -1 -120 -2 -243 -3 -213
-2 -224 -1 -227 17 -1 10 3 28 11 40 7 12 21 48 31 81 16 53 18 113 21 515 1
250 2 473 2 495 -1 22 -1 175 -2 341 l-2 300 -32 62 c-29 55 -31 63 -17 77 17
17 79 21 89 5 3 -6 17 -7 30 -4 17 4 29 0 42 -15 20 -24 38 -28 30 -7 -7 18
35 40 67 34 14 -3 52 0 83 7 62 14 133 19 133 9z m-1390 -19 c191 -4 283 -21
379 -69 64 -33 142 -125 171 -203 26 -69 50 -188 50 -247 0 -59 -26 -225 -40
-261 -34 -83 -65 -137 -100 -172 -73 -73 -95 -93 -106 -93 -6 0 -19 -9 -29
-20 -21 -23 -13 -67 16 -88 10 -7 19 -20 19 -28 0 -8 4 -14 9 -14 4 0 11 -30
15 -66 4 -43 14 -76 28 -94 16 -22 19 -38 15 -64 -4 -28 -2 -36 13 -41 29 -9
39 -28 65 -119 13 -48 33 -106 46 -129 12 -23 48 -92 79 -153 32 -62 68 -123
81 -137 46 -49 99 -85 118 -80 10 3 22 0 25 -6 4 -6 2 -11 -3 -11 -6 0 -11
-13 -11 -30 0 -32 -4 -34 -70 -30 -54 2 -87 9 -190 36 -144 39 -193 71 -231
152 -12 26 -31 57 -41 68 -22 25 -108 173 -108 187 0 5 -9 20 -20 34 -11 14
-20 32 -20 39 0 7 -9 33 -20 56 -28 63 -69 173 -73 196 -1 10 -11 32 -21 47
-11 17 -20 49 -20 77 -3 70 -29 83 -162 79 l-32 -1 3 -252 c3 -309 3 -309 66
-444 10 -22 19 -45 19 -52 0 -8 -67 -11 -244 -11 -220 0 -245 2 -250 17 -3 9
-9 23 -12 31 -4 9 -2 11 5 7 7 -4 11 0 11 11 0 10 16 42 36 71 33 49 35 58 33
125 0 40 2 378 5 752 4 374 7 690 7 703 -1 38 -43 155 -68 188 -12 17 -23 34
-23 37 0 10 89 14 250 10 85 -2 234 -6 330 -8z m5021 -9 c27 -11 38 -11 64 0
36 15 285 20 398 8 l67 -7 2 -36 c5 -123 9 -156 27 -244 24 -114 21 -143 -15
-142 -14 0 -28 5 -32 10 -4 6 -16 16 -27 22 -11 7 -40 25 -64 40 -55 33 -114
43 -216 34 l-80 -6 2 -45 c1 -25 2 -49 3 -55 1 -5 1 -107 0 -225 0 -118 0
-219 1 -225 1 -5 1 -13 0 -17 0 -4 -1 -157 -2 -340 -2 -381 6 -542 27 -572 8
-11 14 -29 14 -39 0 -10 9 -21 20 -24 20 -5 35 -36 26 -52 -4 -5 -109 -10
-240 -10 -128 0 -241 -4 -251 -7 -16 -6 -17 -3 -11 22 4 16 15 41 26 55 52 72
51 69 49 584 -1 264 -2 503 -2 530 1 28 1 111 1 185 -1 74 0 154 1 176 2 61
-14 69 -120 66 -91 -3 -142 -19 -219 -67 -19 -12 -47 -25 -62 -28 -26 -7 -26
-6 -34 60 -6 57 2 343 11 351 21 21 585 20 636 -2z m-7466 4 c4 -6 2 -10 -3
-10 -11 0 -48 -66 -68 -122 -12 -34 -15 -84 -13 -233 1 -104 1 -424 0 -710 0
-300 3 -526 8 -534 13 -20 324 -17 395 4 27 8 60 15 73 15 26 0 32 20 6 20
-15 1 -13 5 8 23 14 13 24 28 22 34 -2 6 8 24 22 41 19 22 34 30 55 30 l30 -1
-6 -156 c-3 -85 -10 -178 -15 -205 -5 -27 -9 -68 -9 -92 l0 -44 -416 0 c-353
0 -419 3 -438 15 -21 14 -25 14 -36 0 -7 -9 -29 -15 -55 -15 -33 0 -44 5 -54
23 -10 19 -6 32 29 99 l40 77 3 182 c3 127 7 184 15 187 7 2 12 8 12 13 0 6
-5 7 -11 3 -8 -5 -10 2 -6 22 3 16 1 37 -5 47 -6 12 -6 28 1 47 6 19 6 32 0
35 -11 7 -5 638 6 697 4 20 4 45 -1 55 -4 10 -8 75 -9 145 -1 130 -7 157 -56
250 -36 70 -46 67 226 67 144 0 247 -4 250 -9z m1159 4 c9 -3 16 -13 16 -21 0
-12 -7 -14 -27 -8 -23 5 -26 4 -15 -6 14 -15 16 -55 3 -63 -27 -17 -31 -114
-35 -791 -4 -602 -2 -703 10 -720 14 -18 24 -20 137 -16 67 2 138 5 157 6 40
2 92 24 85 36 -3 4 21 28 52 54 32 25 68 54 81 65 33 27 52 16 54 -34 4 -112
1 -200 -9 -203 -6 -2 -8 -38 -5 -98 4 -77 2 -99 -12 -120 l-16 -25 -480 0
c-463 0 -480 1 -480 19 0 10 7 25 16 32 9 7 28 38 43 69 22 47 26 69 27 148 0
70 4 96 15 103 12 7 12 9 -2 9 -13 0 -15 27 -12 228 2 190 3 556 1 667 0 17 0
104 0 195 1 315 -1 333 -32 380 -15 23 -25 48 -22 56 3 8 2 12 -3 9 -12 -7
-24 12 -16 25 7 11 442 14 469 4z m4513 -7 l183 -2 30 -33 c36 -40 37 -48 8
-56 -14 -3 -32 -24 -47 -53 -24 -47 -24 -56 -28 -320 -3 -272 -3 -272 22 -325
13 -29 25 -50 26 -45 1 4 2 13 3 20 1 12 55 15 277 17 l76 0 10 58 c6 32 7 64
2 73 -4 9 -9 130 -10 270 -1 226 -4 259 -21 297 -11 25 -16 52 -13 63 5 15 2
22 -14 26 -56 14 10 21 223 22 207 2 234 0 240 -14 11 -29 6 -55 -9 -55 -9 0
-27 -11 -41 -25 -24 -24 -25 -32 -24 -113 2 -75 5 -1202 4 -1457 0 -49 -2
-104 -5 -122 -2 -18 0 -31 6 -30 5 1 8 13 6 27 -4 33 9 19 43 -45 14 -27 26
-60 26 -72 0 -14 6 -23 15 -23 18 0 20 -16 3 -22 -7 -2 -47 -3 -88 -1 -41 1
-155 2 -252 3 -207 0 -199 -6 -141 108 l37 74 3 216 c1 120 5 258 8 307 5 82
3 91 -12 92 -60 4 -385 4 -389 0 -4 -4 -5 -61 -3 -152 0 -11 -2 -99 -5 -195
-6 -210 -1 -286 23 -293 15 -4 69 -132 59 -142 -2 -2 -23 -7 -47 -11 -31 -5
-42 -4 -37 4 3 6 2 13 -4 17 -6 3 -12 0 -15 -7 -4 -10 -46 -13 -188 -12 -216
0 -255 9 -212 44 8 7 15 19 15 27 0 8 12 26 26 40 26 26 27 30 34 207 4 100 8
186 10 191 1 6 1 12 0 15 -1 3 -4 127 -6 275 -2 149 -6 284 -9 300 -3 17 -1
44 3 60 5 17 5 73 1 125 -5 54 -4 120 1 153 6 41 6 64 -2 76 -8 13 -8 49 0
131 12 125 6 151 -43 216 -18 23 -21 34 -12 38 9 5 9 7 0 12 -7 3 -9 12 -6 20
4 10 15 12 42 8 20 -3 118 -6 218 -7z m-8476 -28 c-5 -13 -10 -19 -10 -12 -1
15 10 45 15 40 3 -2 0 -15 -5 -28z m982 -40 c-6 -6 -17 -8 -24 -3 -9 5 -8 9 7
14 23 9 31 3 17 -11z m-1617 -56 c-8 -15 -15 -25 -16 -21 0 12 23 58 27 54 3
-2 -2 -17 -11 -33z m1664 28 c0 -5 -6 -14 -14 -20 -12 -10 -13 -8 -9 8 5 21
23 30 23 12z m43 -54 c-7 -11 -23 12 -23 32 0 11 4 9 14 -4 8 -11 12 -24 9
-28z m-1762 -108 c-5 -13 -10 -19 -10 -12 -1 15 10 45 15 40 3 -2 0 -15 -5
-28z m1789 21 c0 -5 -5 -10 -11 -10 -5 0 -7 5 -4 10 3 6 8 10 11 10 2 0 4 -4
4 -10z m-693 -126 c-3 -3 -12 -4 -19 -1 -8 3 -5 6 6 6 11 1 17 -2 13 -5z m737
-29 c-4 -8 -8 -15 -10 -15 -2 0 -4 7 -4 15 0 8 4 15 10 15 5 0 7 -7 4 -15z
m-1877 -27 c-3 -8 -6 -5 -6 6 -1 11 2 17 5 13 3 -3 4 -12 1 -19z m1773 -58
c-6 -11 -12 -20 -14 -20 -2 0 -6 9 -9 20 -4 15 0 20 14 20 17 0 18 -3 9 -20z
m80 -23 c-10 -9 -11 -9 -5 2 6 11 1 13 -24 9 -17 -2 -31 -1 -31 3 0 11 64 16
69 6 2 -5 -2 -14 -9 -20z m-1879 -13 c-5 -16 -10 -21 -10 -12 -1 18 10 51 15
45 2 -1 -1 -16 -5 -33z m-26 -89 c-8 -27 -14 -41 -14 -29 -1 21 19 88 24 82 2
-2 -3 -25 -10 -53z m1932 -36 c-11 -7 -23 -7 -28 -2 -5 5 3 9 19 11 24 1 25 0
9 -9z m-492 -14 c25 -12 25 -14 5 -8 -14 3 -50 9 -80 13 l-55 7 50 1 c28 1 64
-5 80 -13z m110 -37 c6 -6 3 -7 -9 -2 -11 4 -21 2 -27 -7 -7 -11 -9 -11 -9 3
0 9 -6 19 -12 22 -7 3 1 3 17 -1 17 -3 35 -10 40 -15z m-1584 -29 c-5 -13 -10
-19 -10 -12 -1 15 10 45 15 40 3 -2 0 -15 -5 -28z m1779 11 c0 -5 -4 -10 -10
-10 -5 0 -10 5 -10 10 0 6 5 10 10 10 6 0 10 -4 10 -10z m240 -95 c-7 -9 -15
-13 -17 -11 -6 6 20 36 26 30 2 -2 -2 -10 -9 -19z m-5 -35 c3 -5 1 -10 -4 -10
-6 0 -11 5 -11 10 0 6 2 10 4 10 3 0 8 -4 11 -10z m39 -25 c3 -8 1 -15 -4 -15
-6 0 -10 7 -10 15 0 8 2 15 4 15 2 0 6 -7 10 -15z m-396 -37 c-52 -48 -55 -50
-54 -26 1 21 20 34 54 37 11 1 11 -1 0 -11z m410 -32 c-1 -14 -6 -22 -10 -20
-12 7 -10 44 2 44 5 0 9 -11 8 -24z m4743 -108 c-1 -57 -2 -112 -3 -123 0 -11
2 -100 4 -198 4 -151 2 -177 -10 -175 -14 3 -38 57 -51 118 -4 19 -15 49 -24
67 -9 18 -17 41 -17 51 0 11 -7 33 -15 48 -8 16 -15 37 -15 46 0 9 -4 20 -10
23 -21 13 -9 44 41 106 29 35 60 84 71 108 10 24 21 41 25 37 3 -3 5 -52 4
-108z m-4701 56 c0 -14 -4 -22 -10 -19 -5 3 -10 17 -10 31 0 14 4 22 10 19 6
-3 10 -17 10 -31z m-531 -90 c-6 -8 -19 -14 -28 -14 -14 1 -14 2 2 14 9 7 17
24 18 37 l0 24 10 -24 c6 -16 6 -28 -2 -37z m-96 16 c-5 -19 -23 -29 -23 -12
0 7 20 32 26 32 1 0 0 -9 -3 -20z m645 -11 c11 0 12 -2 5 -6 -7 -2 -13 -11
-13 -19 0 -9 -4 -12 -10 -9 -5 3 -10 0 -10 -7 0 -8 -5 -7 -16 4 -20 20 -11 53
12 44 9 -3 23 -6 32 -7z m-621 -51 c-3 -8 -6 -5 -6 6 -1 11 2 17 5 13 3 -3 4
-12 1 -19z m36 -39 c-7 -25 -20 -33 -29 -18 -4 8 -3 9 4 5 8 -5 12 3 12 26 0
22 3 29 9 19 5 -7 6 -22 4 -32z m-368 21 c13 -5 14 -9 5 -9 -8 0 -24 4 -35 9
-13 5 -14 9 -5 9 8 0 24 -4 35 -9z m428 -10 c4 -16 0 -19 -24 -17 -33 2 -37
11 -11 26 24 15 29 14 35 -9z m77 16 c0 -3 -4 -8 -10 -11 -5 -3 -10 -1 -10 4
0 6 5 11 10 11 6 0 10 -2 10 -4z m404 -43 c-21 -15 -44 -17 -44 -3 0 6 12 10
26 10 18 0 25 4 21 14 -3 8 -3 17 1 21 4 4 9 -1 11 -11 2 -10 -5 -24 -15 -31z
m59 -65 c-5 -11 -33 -10 -33 0 0 4 5 13 12 20 9 9 9 18 0 37 -7 15 -9 32 -5
38 7 12 32 -82 26 -95z m-910 85 c-7 -2 -19 -2 -25 0 -7 3 -2 5 12 5 14 0 19
-2 13 -5z m113 -33 c15 -6 25 -13 22 -15 -3 -3 -20 1 -39 9 -38 17 -25 21 17
6z m206 -32 c-8 -8 -9 -4 -5 13 4 13 8 18 11 10 2 -7 -1 -18 -6 -23z m138 1
c0 -6 -4 -7 -10 -4 -5 3 -10 11 -10 16 0 6 5 7 10 4 6 -3 10 -11 10 -16z
m-203 -15 c-3 -3 -12 -4 -19 -1 -8 3 -5 6 6 6 11 1 17 -2 13 -5z m178 -4 c-3
-5 -12 -10 -18 -10 -7 0 -6 4 3 10 19 12 23 12 15 0z m-140 -18 c-3 -3 -11 0
-18 7 -9 10 -8 11 6 5 10 -3 15 -9 12 -12z m-1698 -64 c-2 -13 -4 -5 -4 17 -1
22 1 32 4 23 2 -10 2 -28 0 -40z m1798 21 c10 -15 -1 -23 -20 -15 -9 3 -13 10
-10 16 8 13 22 13 30 -1z m499 2 c3 -5 -1 -12 -9 -15 -14 -5 -14 -9 0 -35 9
-19 11 -32 5 -36 -15 -9 -26 30 -22 78 2 18 17 23 26 8z m26 -101 c0 -5 -2
-10 -4 -10 -3 0 -8 5 -11 10 -3 6 -1 10 4 10 6 0 11 -4 11 -10z m0 -60 c0 -5
-5 -10 -11 -10 -5 0 -7 5 -4 10 3 6 8 10 11 10 2 0 4 -4 4 -10z m17 -96 c-3
-3 -12 -4 -19 -1 -8 3 -5 6 6 6 11 1 17 -2 13 -5z m-7 -64 c9 -16 8 -20 -5
-20 -9 0 -13 5 -10 10 3 6 1 10 -5 10 -6 0 -8 5 -5 10 9 14 13 13 25 -10z
m-40 -175 c0 -8 -7 -15 -15 -15 -9 0 -12 6 -9 15 4 8 10 15 15 15 5 0 9 -7 9
-15z m-80 -73 c0 -11 -7 -18 -20 -18 -33 0 -22 32 13 35 4 1 7 -7 7 -17z m6
-61 c-4 -5 -3 -17 0 -26 5 -13 8 -14 15 -3 6 9 9 6 9 -11 0 -23 -1 -23 -19 -7
-28 25 -37 2 -12 -30 12 -15 21 -32 21 -38 -1 -16 -38 34 -49 66 -8 22 -7 26
5 21 9 -3 14 2 14 16 0 12 5 21 11 21 5 0 8 -4 5 -9z m-2409 -23 c-3 -8 -6 -5
-6 6 -1 11 2 17 5 13 3 -3 4 -12 1 -19z m2430 -160 c-3 -8 -6 -5 -6 6 -1 11 2
17 5 13 3 -3 4 -12 1 -19z m50 -245 c-3 -10 -5 -2 -5 17 0 19 2 27 5 18 2 -10
2 -26 0 -35z m-2720 -215 c-3 -8 -6 -5 -6 6 -1 11 2 17 5 13 3 -3 4 -12 1 -19z
m2714 -21 c-10 -9 -11 -8 -5 6 3 10 9 15 12 12 3 -3 0 -11 -7 -18z m-2744 -79
c-3 -8 -6 -5 -6 6 -1 11 2 17 5 13 3 -3 4 -12 1 -19z m-23 -40 c-4 -7 -24 -36
-45 -64 -22 -28 -39 -58 -39 -67 0 -9 -4 -18 -9 -21 -21 -14 6 44 48 101 43
59 61 79 45 51z m426 -469 c0 -5 -12 -9 -27 -9 -27 1 -27 1 -9 15 19 14 36 12
36 -6z m110 5 c0 -2 -24 -3 -52 -3 -48 2 -49 2 -18 8 33 6 70 3 70 -5z m117 0
c-3 -3 -12 -4 -19 -1 -8 3 -5 6 6 6 11 1 17 -2 13 -5z m-367 -19 c0 -12 -86
-45 -115 -44 -25 1 -23 3 12 9 23 5 54 16 70 24 32 18 33 18 33 11z m-165 -45
c-3 -5 -18 -10 -33 -9 l-27 1 25 8 c35 11 42 11 35 0z"/>
<path d="M3556 6735 c-3 -9 0 -15 9 -15 8 0 15 7 15 15 0 8 -4 15 -9 15 -5 0
-11 -7 -15 -15z"/>
<path d="M3511 6821 c-8 -5 -9 -11 -3 -15 5 -3 12 1 16 9 6 17 6 18 -13 6z"/>
<path d="M4045 5860 c3 -5 8 -10 11 -10 2 0 4 5 4 10 0 6 -5 10 -11 10 -5 0
-7 -4 -4 -10z"/>
<path d="M4166 5782 c-3 -6 -1 -14 5 -17 14 -9 20 -2 10 14 -6 8 -11 9 -15 3z"/>
<path d="M4077 5733 c-10 -10 -8 -43 2 -43 9 0 21 24 21 41 0 11 -14 12 -23 2z"/>
<path d="M4192 5592 c-8 -2 -22 -25 -33 -49 -18 -42 -18 -48 -4 -69 20 -32 19
-35 -10 -24 -35 13 -40 -4 -16 -50 13 -24 16 -40 9 -42 -6 -2 -4 -11 7 -22 14
-14 20 -15 26 -5 4 8 3 19 -3 26 -8 10 -6 17 8 28 15 11 16 17 6 23 -13 9 -7
42 8 42 4 0 10 9 13 20 3 12 14 20 27 20 19 0 20 4 14 35 -4 23 -2 41 6 50 7
9 9 19 5 23 -4 4 -10 1 -12 -5 -5 -15 -30 -17 -35 -4 -1 4 -9 6 -16 3z"/>
<path d="M4131 5544 c0 -11 3 -14 6 -6 3 7 2 16 -1 19 -3 4 -6 -2 -5 -13z"/>
<path d="M4088 5519 c4 -27 6 -29 14 -14 7 12 6 21 -4 32 -13 12 -14 10 -10
-18z"/>
<path d="M4140 5266 c0 -9 5 -16 10 -16 6 0 10 4 10 9 0 6 -4 13 -10 16 -5 3
-10 -1 -10 -9z"/>
<path d="M4115 5120 c-3 -5 -2 -10 4 -10 5 0 13 5 16 10 3 6 2 10 -4 10 -5 0
-13 -4 -16 -10z"/>
<path d="M4204 4915 c-28 -28 -30 -41 -10 -61 28 -27 50 -7 39 35 -3 12 -1 21
6 21 6 0 10 -5 9 -11 -2 -6 3 -14 10 -16 7 -3 12 4 12 20 0 36 -36 42 -66 12z"/>
<path d="M4357 4925 c-4 -8 -2 -17 3 -20 6 -4 10 1 10 9 0 31 18 15 25 -21 4
-21 10 -33 12 -26 2 7 12 9 21 5 15 -5 15 -4 -1 12 -10 10 -16 24 -13 31 5 13
-14 25 -39 25 -7 0 -15 -7 -18 -15z"/>
<path d="M4336 4874 c-11 -27 -7 -37 9 -24 16 14 20 40 6 40 -5 0 -12 -7 -15
-16z"/>
<path d="M4186 4543 c-9 -22 10 -41 25 -26 13 13 5 43 -10 43 -5 0 -12 -8 -15
-17z"/>
<path d="M4290 4550 c0 -5 5 -10 10 -10 6 0 10 5 10 10 0 6 -4 10 -10 10 -5 0
-10 -4 -10 -10z"/>
<path d="M4349 4531 l-23 -18 22 -7 c12 -4 31 -4 42 -1 19 6 24 -2 23 -41 0
-6 8 -9 19 -6 21 5 22 4 -12 54 -28 43 -38 46 -71 19z"/>
<path d="M4287 4504 c6 -16 25 -14 30 2 2 5 -6 10 -16 11 -14 1 -18 -3 -14
-13z"/>
<path d="M4342 4469 c-12 -12 -19 -26 -16 -30 2 -4 0 -10 -6 -14 -14 -9 -3
-25 17 -25 10 0 14 6 10 20 -3 13 2 25 16 35 15 11 18 18 10 26 -8 8 -16 4
-31 -12z"/>
<path d="M4247 4425 c-10 -14 -14 -25 -9 -25 11 0 52 35 52 44 0 15 -27 3 -43
-19z"/>
<path d="M4432 4340 c14 -22 24 -19 15 5 -4 8 -11 15 -17 15 -6 0 -6 -7 2 -20z"/>
<path d="M4350 4313 c1 -14 30 -47 36 -41 8 8 -14 48 -26 48 -6 0 -10 -3 -10
-7z"/>
<path d="M4417 4177 c-8 -21 6 -38 23 -27 13 8 13 11 -1 25 -14 14 -17 14 -22
2z"/>
<path d="M4377 4168 c-5 -15 20 -68 32 -68 10 0 3 39 -10 56 -5 6 -6 14 -2 17
3 4 1 7 -4 7 -6 0 -13 -6 -16 -12z"/>
<path d="M10495 5783 c-19 -15 -19 -15 10 -8 37 8 57 25 30 25 -11 0 -29 -8
-40 -17z"/>
<path d="M10452 5428 c6 -18 28 -21 28 -4 0 9 -7 16 -16 16 -9 0 -14 -5 -12
-12z"/>
<path d="M11020 4631 c0 -12 5 -21 10 -21 6 0 10 6 10 14 0 8 -4 18 -10 21 -5
3 -10 -3 -10 -14z"/>
<path d="M11170 4471 c0 -5 5 -13 10 -16 6 -3 10 -2 10 4 0 5 -4 13 -10 16 -5
3 -10 2 -10 -4z"/>
<path d="M11102 4389 c-7 -12 -11 -23 -8 -26 2 -3 10 4 17 15 7 11 18 18 25
15 6 -2 15 0 19 6 4 7 -3 11 -17 11 -13 0 -29 -9 -36 -21z"/>
<path d="M10175 4320 c3 -5 8 -10 11 -10 2 0 4 5 4 10 0 6 -5 10 -11 10 -5 0
-7 -4 -4 -10z"/>
<path d="M10426 4303 c-4 -9 -2 -21 4 -27 7 -7 10 -7 10 1 0 6 3 18 6 27 3 9
2 16 -4 16 -5 0 -13 -8 -16 -17z"/>
<path d="M10420 4189 c0 -5 5 -7 10 -4 6 3 10 8 10 11 0 2 -4 4 -10 4 -5 0
-10 -5 -10 -11z"/>
<path d="M11140 4178 c0 -4 4 -8 9 -8 6 0 12 4 15 8 3 5 -1 9 -9 9 -8 0 -15
-4 -15 -9z"/>
<path d="M10945 4130 c-8 -12 12 -40 28 -40 5 0 2 9 -7 19 -13 15 -14 20 -4
24 9 4 9 6 1 6 -6 1 -15 -4 -18 -9z"/>
<path d="M10990 4069 c0 -5 5 -7 10 -4 6 3 10 8 10 11 0 2 -4 4 -10 4 -5 0
-10 -5 -10 -11z"/>
<path d="M10770 4059 c0 -5 5 -7 10 -4 6 3 10 8 10 11 0 2 -4 4 -10 4 -5 0
-10 -5 -10 -11z"/>
<path d="M10986 4035 c4 -8 10 -15 15 -15 4 0 6 7 3 15 -4 8 -10 15 -15 15 -4
0 -6 -7 -3 -15z"/>
<path d="M10660 3990 c0 -5 5 -10 11 -10 5 0 7 5 4 10 -3 6 -8 10 -11 10 -2 0
-4 -4 -4 -10z"/>
<path d="M9500 5770 c35 -11 70 -12 70 -1 0 5 -21 9 -47 9 -38 0 -43 -2 -23
-8z"/>
<path d="M9800 5770 c0 -5 5 -10 10 -10 6 0 10 5 10 10 0 6 -4 10 -10 10 -5 0
-10 -4 -10 -10z"/>
<path d="M9743 5763 c9 -2 23 -2 30 0 6 3 -1 5 -18 5 -16 0 -22 -2 -12 -5z"/>
<path d="M9766 5581 c-3 -5 1 -11 9 -15 15 -6 29 7 18 18 -9 9 -21 8 -27 -3z"/>
<path d="M9605 5399 c-4 -6 -5 -12 -2 -15 2 -3 7 2 10 11 7 17 1 20 -8 4z"/>
<path d="M9542 5143 c-15 -6 -6 -23 14 -23 8 0 14 7 14 15 0 15 -6 17 -28 8z"/>
<path d="M9570 5006 c0 -8 5 -18 10 -21 13 -8 42 14 34 26 -9 15 -44 10 -44
-5z"/>
<path d="M9650 4939 c0 -5 5 -7 10 -4 6 3 10 8 10 11 0 2 -4 4 -10 4 -5 0 -10
-5 -10 -11z"/>
<path d="M9755 4750 c4 -6 11 -8 16 -5 14 9 11 15 -7 15 -8 0 -12 -5 -9 -10z"/>
<path d="M9505 4480 c3 -5 8 -10 11 -10 2 0 4 5 4 10 0 6 -5 10 -11 10 -5 0
-7 -4 -4 -10z"/>
<path d="M9750 4265 c-8 -9 -8 -15 -2 -15 18 0 42 12 42 21 0 14 -26 10 -40
-6z"/>
<path d="M9660 4210 c0 -5 7 -10 16 -10 8 0 12 5 9 10 -3 6 -10 10 -16 10 -5
0 -9 -4 -9 -10z"/>
<path d="M9635 3938 c-14 -21 -14 -23 1 -26 19 -4 20 -4 28 26 4 13 3 22 -3
22 -5 0 -17 -10 -26 -22z"/>
<path d="M9508 3883 c7 -3 16 -2 19 1 4 3 -2 6 -13 5 -11 0 -14 -3 -6 -6z"/>
<path d="M8335 5769 c-12 -19 5 -23 22 -6 16 16 16 17 1 17 -9 0 -20 -5 -23
-11z"/>
<path d="M8470 5770 c0 -5 5 -10 10 -10 6 0 10 5 10 10 0 6 -4 10 -10 10 -5 0
-10 -4 -10 -10z"/>
<path d="M8615 5730 c-3 -5 -2 -10 4 -10 5 0 13 5 16 10 3 6 2 10 -4 10 -5 0
-13 -4 -16 -10z"/>
<path d="M8290 5540 c0 -5 5 -10 11 -10 5 0 7 5 4 10 -3 6 -8 10 -11 10 -2 0
-4 -4 -4 -10z"/>
<path d="M8352 5490 c-15 -25 -10 -496 6 -512 9 -9 52 -14 135 -16 114 -3 124
-2 157 20 60 40 81 98 83 230 3 177 -1 192 -63 238 -57 43 -80 48 -222 52 -68
2 -88 0 -96 -12z"/>
<path d="M8707 5496 c-4 -10 -1 -13 8 -9 8 3 12 9 9 14 -7 12 -11 11 -17 -5z"/>
<path d="M8960 5479 c7 -11 14 -18 17 -15 8 8 -5 36 -17 36 -7 0 -7 -6 0 -21z"/>
<path d="M8881 5164 c0 -11 3 -14 6 -6 3 7 2 16 -1 19 -3 4 -6 -2 -5 -13z"/>
<path d="M8955 5030 c-3 -5 -1 -10 4 -10 6 0 11 5 11 10 0 6 -2 10 -4 10 -3 0
-8 -4 -11 -10z"/>
<path d="M8941 4924 c0 -11 3 -14 6 -6 3 7 2 16 -1 19 -3 4 -6 -2 -5 -13z"/>
<path d="M8485 4870 c-3 -5 -1 -10 4 -10 6 0 11 5 11 10 0 6 -2 10 -4 10 -3 0
-8 -4 -11 -10z"/>
<path d="M8670 4855 c0 -8 5 -15 10 -15 6 0 10 7 10 15 0 8 -4 15 -10 15 -5 0
-10 -7 -10 -15z"/>
<path d="M8501 4771 c-8 -6 -9 -11 -3 -15 6 -3 14 -1 17 5 9 14 2 20 -14 10z"/>
<path d="M8590 4729 c0 -12 5 -19 12 -17 18 6 20 25 3 31 -10 5 -15 0 -15 -14z"/>
<path d="M8230 4551 c0 -6 5 -13 10 -16 6 -3 10 1 10 9 0 9 -4 16 -10 16 -5 0
-10 -4 -10 -9z"/>
<path d="M8797 4324 c-8 -8 1 -24 14 -24 5 0 9 7 9 15 0 15 -12 20 -23 9z"/>
<path d="M8255 4150 c3 -5 10 -10 16 -10 5 0 9 5 9 10 0 6 -7 10 -16 10 -8 0
-12 -4 -9 -10z"/>
<path d="M8720 4090 c0 -5 7 -10 16 -10 8 0 12 5 9 10 -3 6 -10 10 -16 10 -5
0 -9 -4 -9 -10z"/>
<path d="M8316 4065 c-3 -8 -1 -15 4 -15 6 0 10 7 10 15 0 8 -2 15 -4 15 -2 0
-6 -7 -10 -15z"/>
<path d="M9006 4071 c-4 -7 -5 -15 -2 -18 9 -9 19 4 14 18 -4 11 -6 11 -12 0z"/>
<path d="M8850 4020 c0 -5 5 -10 11 -10 5 0 7 5 4 10 -3 6 -8 10 -11 10 -2 0
-4 -4 -4 -10z"/>
<path d="M8020 3960 c0 -11 4 -20 8 -20 4 0 8 9 9 20 1 11 -2 20 -8 20 -5 0
-9 -9 -9 -20z"/>
<path d="M8255 3910 c3 -5 8 -10 11 -10 2 0 4 5 4 10 0 6 -5 10 -11 10 -5 0
-7 -4 -4 -10z"/>
<path d="M8860 3910 c0 -5 5 -10 10 -10 6 0 10 5 10 10 0 6 -4 10 -10 10 -5 0
-10 -4 -10 -10z"/>
<path d="M8058 3893 c7 -3 16 -2 19 1 4 3 -2 6 -13 5 -11 0 -14 -3 -6 -6z"/>
<path d="M9181 3814 c0 -11 3 -14 6 -6 3 7 2 16 -1 19 -3 4 -6 -2 -5 -13z"/>
<path d="M13640 5790 c-13 -8 -12 -10 3 -10 9 0 17 5 17 10 0 12 -1 12 -20 0z"/>
<path d="M13025 5740 c3 -5 8 -10 11 -10 2 0 4 5 4 10 0 6 -5 10 -11 10 -5 0
-7 -4 -4 -10z"/>
<path d="M13046 5715 c-3 -8 -1 -15 4 -15 6 0 10 7 10 15 0 8 -2 15 -4 15 -2
0 -6 -7 -10 -15z"/>
<path d="M13130 5579 c0 -5 5 -7 10 -4 6 3 10 8 10 11 0 2 -4 4 -10 4 -5 0
-10 -5 -10 -11z"/>
<path d="M13730 5524 c0 -8 5 -12 10 -9 6 3 10 10 10 16 0 5 -4 9 -10 9 -5 0
-10 -7 -10 -16z"/>
<path d="M13610 5421 c0 -6 5 -13 10 -16 6 -3 10 1 10 9 0 9 -4 16 -10 16 -5
0 -10 -4 -10 -9z"/>
<path d="M13576 5362 c2 -3 -1 -11 -7 -19 -8 -9 -8 -13 -1 -13 16 0 26 20 15
30 -6 4 -8 5 -7 2z"/>
<path d="M13625 5360 c-3 -5 -1 -10 4 -10 6 0 11 5 11 10 0 6 -2 10 -4 10 -3
0 -8 -4 -11 -10z"/>
<path d="M13490 5305 c0 -8 4 -15 10 -15 5 0 7 7 4 15 -4 8 -8 15 -10 15 -2 0
-4 -7 -4 -15z"/>
<path d="M13415 5280 c-3 -5 -1 -10 4 -10 6 0 11 5 11 10 0 6 -2 10 -4 10 -3
0 -8 -4 -11 -10z"/>
<path d="M13601 5034 c0 -11 3 -14 6 -6 3 7 2 16 -1 19 -3 4 -6 -2 -5 -13z"/>
<path d="M13480 4994 c0 -9 5 -14 12 -12 18 6 21 28 4 28 -9 0 -16 -7 -16 -16z"/>
<path d="M13600 4579 c0 -5 5 -7 10 -4 6 3 10 8 10 11 0 2 -4 4 -10 4 -5 0
-10 -5 -10 -11z"/>
<path d="M13566 4463 c-4 -10 -1 -20 9 -25 8 -5 13 -13 10 -19 -4 -5 -1 -9 4
-9 6 0 11 7 11 15 0 8 -5 15 -11 15 -6 0 -8 9 -4 20 8 24 -10 27 -19 3z"/>
<path d="M13617 4343 c-4 -3 -7 -11 -7 -17 0 -6 5 -5 12 2 6 6 9 14 7 17 -3 3
-9 2 -12 -2z"/>
<path d="M13361 4294 c0 -11 3 -14 6 -6 3 7 2 16 -1 19 -3 4 -6 -2 -5 -13z"/>
<path d="M13570 4160 c0 -5 5 -10 11 -10 5 0 7 5 4 10 -3 6 -8 10 -11 10 -2 0
-4 -4 -4 -10z"/>
<path d="M5670 5769 c0 -5 5 -7 10 -4 6 3 10 8 10 11 0 2 -4 4 -10 4 -5 0 -10
-5 -10 -11z"/>
<path d="M5840 5770 c0 -5 12 -10 28 -10 21 0 24 2 12 10 -20 13 -40 13 -40 0z"/>
<path d="M5620 5720 c0 -5 5 -10 11 -10 5 0 7 5 4 10 -3 6 -8 10 -11 10 -2 0
-4 -4 -4 -10z"/>
<path d="M5690 5459 c0 -5 5 -7 10 -4 6 3 10 8 10 11 0 2 -4 4 -10 4 -5 0 -10
-5 -10 -11z"/>
<path d="M5710 5350 c0 -5 5 -10 10 -10 6 0 10 5 10 10 0 6 -4 10 -10 10 -5 0
-10 -4 -10 -10z"/>
<path d="M5690 5331 c0 -12 5 -21 10 -21 6 0 10 6 10 14 0 8 -4 18 -10 21 -5
3 -10 -3 -10 -14z"/>
<path d="M5920 5309 c0 -5 5 -7 10 -4 6 3 10 8 10 11 0 2 -4 4 -10 4 -5 0 -10
-5 -10 -11z"/>
<path d="M5770 5080 c-8 -5 -11 -12 -7 -16 4 -4 13 -2 19 4 15 15 7 24 -12 12z"/>
<path d="M5701 5017 c-6 -8 -8 -17 -4 -20 11 -12 19 -7 20 13 2 24 -1 25 -16
7z"/>
<path d="M5795 4540 c-4 -6 3 -10 14 -10 25 0 27 6 6 13 -8 4 -17 2 -20 -3z"/>
<path d="M5730 4140 c0 -5 5 -10 11 -10 5 0 7 5 4 10 -3 6 -8 10 -11 10 -2 0
-4 -4 -4 -10z"/>
<path d="M5946 4112 c-3 -6 -1 -14 5 -17 15 -10 25 3 12 16 -7 7 -13 7 -17 1z"/>
<path d="M6840 5770 c-12 -8 -11 -10 8 -10 12 0 22 5 22 10 0 13 -11 13 -30 0z"/>
<path d="M6880 5770 c0 -5 10 -10 23 -10 18 0 19 2 7 10 -19 13 -30 13 -30 0z"/>
<path d="M7046 5769 c6 -11 74 -12 74 -1 0 4 -18 8 -40 8 -22 1 -37 -2 -34 -7z"/>
<path d="M7160 5762 c0 -5 7 -13 16 -16 10 -4 14 -1 12 6 -5 15 -28 23 -28 10z"/>
<path d="M6915 4950 c3 -5 8 -10 11 -10 2 0 4 5 4 10 0 6 -5 10 -11 10 -5 0
-7 -4 -4 -10z"/>
<path d="M7135 3900 c-3 -5 -1 -10 4 -10 6 0 11 5 11 10 0 6 -2 10 -4 10 -3 0
-8 -4 -11 -10z"/>
<path d="M6825 3880 c-3 -5 -1 -10 4 -10 6 0 11 5 11 10 0 6 -2 10 -4 10 -3 0
-8 -4 -11 -10z"/>
<path d="M11645 5770 c-3 -5 -1 -10 4 -10 6 0 11 5 11 10 0 6 -2 10 -4 10 -3
0 -8 -4 -11 -10z"/>
<path d="M12390 5769 c0 -6 -7 -9 -15 -5 -17 6 -20 -11 -6 -33 10 -16 31 -6
31 15 0 8 8 14 18 14 14 0 15 2 2 10 -20 13 -30 12 -30 -1z"/>
<path d="M12275 5760 c-4 -7 3 -8 22 -4 38 9 42 14 10 14 -14 0 -29 -5 -32
-10z"/>
<path d="M11880 5750 c0 -5 7 -7 15 -4 8 4 15 8 15 10 0 2 -7 4 -15 4 -8 0
-15 -4 -15 -10z"/>
<path d="M12660 5749 c0 -5 5 -7 10 -4 6 3 10 8 10 11 0 2 -4 4 -10 4 -5 0
-10 -5 -10 -11z"/>
<path d="M12440 5624 c0 -6 7 -19 15 -30 8 -10 14 -14 14 -9 0 6 -6 19 -14 29
-8 11 -15 15 -15 10z"/>
<path d="M11750 5410 c0 -5 5 -10 10 -10 6 0 10 5 10 10 0 6 -4 10 -10 10 -5
0 -10 -4 -10 -10z"/>
<path d="M11780 5140 c0 -5 5 -10 10 -10 6 0 10 5 10 10 0 6 -4 10 -10 10 -5
0 -10 -4 -10 -10z"/>
<path d="M11830 5084 c0 -8 5 -12 10 -9 6 4 8 11 5 16 -9 14 -15 11 -15 -7z"/>
<path d="M12405 5020 c-3 -5 -1 -10 4 -10 6 0 11 5 11 10 0 6 -2 10 -4 10 -3
0 -8 -4 -11 -10z"/>
<path d="M11710 4969 c0 -5 5 -7 10 -4 6 3 10 8 10 11 0 2 -4 4 -10 4 -5 0
-10 -5 -10 -11z"/>
<path d="M12275 4950 c-3 -5 -2 -10 4 -10 5 0 13 5 16 10 3 6 2 10 -4 10 -5 0
-13 -4 -16 -10z"/>
<path d="M11769 4940 c-1 -6 -2 -16 -3 -22 -1 -7 -8 -18 -16 -25 -13 -11 -13
-12 4 -13 19 0 45 26 46 46 0 15 -29 27 -31 14z"/>
<path d="M11880 4929 c0 -5 5 -7 10 -4 6 3 10 8 10 11 0 2 -4 4 -10 4 -5 0
-10 -5 -10 -11z"/>
<path d="M11918 4783 c7 -3 16 -2 19 1 4 3 -2 6 -13 5 -11 0 -14 -3 -6 -6z"/>
<path d="M11915 4690 c-3 -5 1 -10 10 -10 9 0 13 5 10 10 -3 6 -8 10 -10 10
-2 0 -7 -4 -10 -10z"/>
<path d="M11792 4638 c5 -15 28 -23 28 -10 0 5 -7 13 -16 16 -10 4 -14 1 -12
-6z"/>
<path d="M11803 4230 c-1 -11 2 -22 7 -25 5 -3 7 -12 3 -20 -3 -8 0 -15 7 -15
7 0 10 14 8 37 -3 39 -23 57 -25 23z"/>
<path d="M12435 4170 c-3 -5 -1 -10 4 -10 6 0 11 5 11 10 0 6 -2 10 -4 10 -3
0 -8 -4 -11 -10z"/>
<path d="M11560 4120 c0 -5 5 -10 10 -10 6 0 10 5 10 10 0 6 -4 10 -10 10 -5
0 -10 -4 -10 -10z"/>
<path d="M12332 4040 c0 -14 2 -19 5 -12 2 6 2 18 0 25 -3 6 -5 1 -5 -13z"/>
<path d="M11870 3954 c0 -8 5 -12 10 -9 6 3 10 10 10 16 0 5 -4 9 -10 9 -5 0
-10 -7 -10 -16z"/>
<path d="M11890 3904 c0 -8 5 -12 10 -9 6 3 10 10 10 16 0 5 -4 9 -10 9 -5 0
-10 -7 -10 -16z"/>
<path d="M12606 3904 c-5 -14 -4 -15 9 -4 17 14 19 20 6 20 -5 0 -12 -7 -15
-16z"/>
<path d="M4520 4722 c0 -5 7 -9 15 -9 8 0 12 4 9 9 -3 4 -9 8 -15 8 -5 0 -9
-4 -9 -8z"/>
</g>
</svg>
